<?xml version="1.0" standalone="no"?>
<!DOCTYPE svg PUBLIC "-//W3C//DTD SVG 20010904//EN"
 "http://www.w3.org/TR/2001/REC-SVG-20010904/DTD/svg10.dtd">
<svg version="1.0" xmlns="http://www.w3.org/2000/svg"
 width="310.000000pt" height="205.000000pt" viewBox="0 0 310.000000 205.000000"
 preserveAspectRatio="xMidYMid meet">

<g transform="translate(0.000000,205.000000) scale(0.100000,-0.100000)"
fill="#000000" stroke="none">
<path d="M360 1592 c0 -10 -16 -90 -35 -178 -20 -87 -38 -170 -40 -184 -5 -25
-5 -25 8 -3 9 16 16 20 27 13 8 -5 27 -10 42 -10 15 0 30 -5 34 -11 4 -7 20
-8 41 -4 19 3 40 2 46 -3 7 -5 46 -12 88 -14 60 -4 80 -9 97 -26 21 -21 30
-22 233 -22 124 0 218 4 229 10 12 7 28 37 41 80 11 39 23 70 26 70 2 0 2 -9
-2 -19 -5 -17 4 -16 77 16 46 19 100 42 121 49 64 24 115 53 126 71 8 15 11
15 12 3 1 -8 1 -19 0 -23 -1 -5 4 -5 10 -2 6 4 9 15 6 25 -3 13 0 16 13 13 14
-4 21 8 35 62 10 36 22 68 26 71 5 3 7 -1 5 -8 -3 -7 -66 -260 -142 -563 -75
-302 -140 -558 -145 -567 -9 -16 -29 -18 -204 -18 -107 0 -195 3 -195 8 0 4 7
34 15 67 23 97 15 98 -10 1 -13 -50 -21 -94 -19 -98 3 -4 103 -8 223 -8 218 0
219 0 225 23 8 29 67 271 161 652 41 171 87 353 100 406 14 53 25 103 25 112
0 14 -24 16 -197 17 -108 0 -207 3 -219 6 -19 5 -21 2 -17 -19 5 -23 -20 -136
-69 -319 l-20 -78 -239 0 c-237 0 -239 0 -239 21 0 12 16 83 36 158 19 75 40
153 45 175 6 21 12 36 14 34 2 -2 -16 -84 -39 -183 -26 -104 -40 -184 -35
-189 5 -5 11 -7 14 -4 3 3 26 90 51 193 43 178 44 188 27 201 -14 10 -65 13
-215 14 -185 0 -198 -1 -198 -18z"/>
<path d="M1896 1583 c3 -17 -25 -155 -71 -343 -41 -173 -89 -373 -106 -445
-17 -71 -42 -177 -55 -233 -14 -57 -23 -109 -21 -115 2 -6 66 243 143 553
l140 565 369 0 c220 0 353 3 329 8 -21 5 -187 11 -369 14 -181 2 -334 9 -339
14 -18 17 -26 9 -20 -18z"/>
<path d="M210 1088 c-179 -728 -170 -686 -153 -692 24 -9 431 -7 437 2 3 5 26
85 51 178 64 238 77 278 89 287 6 4 95 7 199 6 162 -1 189 -4 197 -18 5 -9 10
-11 11 -6 0 6 5 -1 10 -15 6 -19 7 -15 3 15 -3 22 -8 43 -10 47 -3 5 -101 8
-218 8 -159 0 -216 -3 -224 -12 -5 -7 -37 -111 -70 -232 -33 -120 -66 -223
-73 -228 -8 -5 -54 -7 -103 -4 -49 3 -129 6 -178 6 -102 0 -99 -3 -74 104 37
155 109 467 140 601 8 39 36 153 61 255 49 203 48 200 37 200 -4 0 -64 -226
-132 -502z"/>
<path d="M2769 1538 c183 -99 271 -290 243 -522 -30 -241 -191 -463 -387 -533
-128 -46 -134 -46 -575 -52 -234 -3 -431 -10 -439 -15 -33 -21 35 -26 404 -26
299 0 407 3 465 14 196 38 302 93 394 204 82 99 141 216 166 327 24 108 25
168 5 270 -32 168 -175 337 -306 361 -28 5 -23 1 30 -28z"/>
<path d="M2323 1362 l-82 -3 -10 -37 c-6 -20 -26 -104 -46 -187 -20 -82 -52
-213 -70 -289 -38 -151 -42 -186 -22 -186 17 0 23 22 160 610 l13 55 84 3 c47
2 110 0 140 -3 47 -6 61 -13 93 -46 40 -43 45 -43 22 1 -27 53 -68 72 -180 83
-11 1 -57 1 -102 -1z"/>
<path d="M2641 1143 c0 -90 -4 -113 -33 -193 -44 -125 -126 -224 -218 -268
-47 -21 -73 -26 -172 -30 -65 -2 -118 -8 -118 -13 0 -13 180 -11 255 2 136 23
234 140 286 342 20 76 25 202 9 227 -6 9 -9 -13 -9 -67z"/>
<path d="M1031 754 c-15 -61 -8 -68 9 -9 7 25 10 48 8 51 -3 2 -11 -16 -17
-42z"/>
</g>
</svg>
